<?xml version="1.0" encoding="UTF-8"?>
<!DOCTYPE svg PUBLIC "-//W3C//DTD SVG 1.1//EN" "http://www.w3.org/Graphics/SVG/1.1/DTD/svg11.dtd">
<svg xmlns="http://www.w3.org/2000/svg" version="1.1" width="200px" height="183px" style="shape-rendering:geometricPrecision; text-rendering:geometricPrecision; image-rendering:optimizeQuality; fill-rule:evenodd; clip-rule:evenodd" xmlns:xlink="http://www.w3.org/1999/xlink">
<g><path style="opacity:0.964" fill="#905eff" d="M 55.5,5.5 C 63.6173,5.57795 71.6173,7.07795 79.5,10C 81.342,12.5429 83.5087,14.7096 86,16.5C 86.6888,19.4081 87.8555,22.0748 89.5,24.5C 88.2556,27.8106 88.2556,31.1439 89.5,34.5C 88.0711,41.8952 86.4045,49.2286 84.5,56.5C 85.9698,58.4817 85.6364,60.1483 83.5,61.5C 83.8333,62.1667 84.1667,62.8333 84.5,63.5C 80.7673,73.0019 77.934,82.6686 76,92.5C 76.6667,91.1667 77.3333,91.1667 78,92.5C 78.724,90.0411 80.0573,89.0411 82,89.5C 85.3289,86.5495 88.4956,83.3829 91.5,80C 104.253,72.1162 114.587,61.7828 122.5,49C 130.259,37.8469 131.259,26.1803 125.5,14C 126.184,11.6302 127.517,9.63015 129.5,8C 134.679,6.23275 139.846,5.39941 145,5.5C 148.928,8.00756 152.761,10.6742 156.5,13.5C 156.291,14.086 155.957,14.586 155.5,15C 157.076,17.1826 158.742,19.3493 160.5,21.5C 159.506,27.1726 159.506,32.8393 160.5,38.5C 158.488,44.3627 155.988,50.0293 153,55.5C 151.5,58.3333 149.333,60.5 146.5,62C 146.957,62.414 147.291,62.914 147.5,63.5C 134.162,76.6684 119.496,88.1684 103.5,98C 101.125,100.176 98.7918,102.343 96.5,104.5C 107.075,118.463 117.575,133.13 128,148.5C 130.798,152.066 134.465,154.066 139,154.5C 143.058,153.302 147.058,153.302 151,154.5C 153.072,151.545 154.405,148.212 155,144.5C 158.017,141.621 161.35,139.288 165,137.5C 169.746,137.654 174.58,137.82 179.5,138C 182.511,138.768 185.011,140.268 187,142.5C 187.414,142.043 187.914,141.709 188.5,141.5C 193.242,149.175 193.742,157.175 190,165.5C 188.257,167.321 186.757,169.321 185.5,171.5C 174.411,177.42 164.411,176.587 155.5,169C 155.833,168.667 156.167,168.333 156.5,168C 154.396,165.958 153.229,163.458 153,160.5C 149.897,167.435 144.731,172.102 137.5,174.5C 127.593,176.276 118.26,175.443 109.5,172C 98.8223,164.271 91.1556,154.271 86.5,142C 81.2897,132.407 75.4564,123.24 69,114.5C 67.0093,117.658 65.176,120.824 63.5,124C 63.9574,124.414 64.2907,124.914 64.5,125.5C 61.2585,130.229 58.2585,135.062 55.5,140C 55.9574,140.414 56.2907,140.914 56.5,141.5C 52.4963,147.992 48.3297,154.325 44,160.5C 41.527,162.973 39.027,165.473 36.5,168C 35.5509,168.617 34.7175,168.451 34,167.5C 33.4768,169.223 32.4768,170.556 31,171.5C 21.4958,177.605 12.9958,176.605 5.5,168.5C 5.68624,166.185 6.01957,163.851 6.5,161.5C 14.5911,153.56 21.4244,144.56 27,134.5C 42.9122,101.525 53.5788,66.5253 59,29.5C 55.4997,30.7759 52.3331,32.6092 49.5,35C 45.9551,35.7171 42.4551,35.5504 39,34.5C 36.3125,31.6448 33.4791,28.9782 30.5,26.5C 30.3843,23.2862 30.7177,19.9528 31.5,16.5C 33.6898,14.476 36.0232,12.6427 38.5,11C 44.1741,8.75969 49.8408,6.92636 55.5,5.5 Z"/></g>
</svg>
